<svg width="160" height="48" viewBox="0 0 160 48" fill="none" xmlns="http://www.w3.org/2000/svg">
<path d="M158.939 41.8106C158.939 42.4073 158.821 42.9981 158.593 43.5493C158.364 44.1005 158.029 44.6012 157.607 45.0229C157.185 45.4446 156.683 45.7789 156.132 46.0068C155.58 46.2347 154.989 46.3517 154.392 46.3511H5.60781C4.4019 46.3524 3.24487 45.8747 2.39117 45.0233C1.53746 44.1718 1.05699 43.0162 1.05542 41.8106V5.60149C1.05699 4.39536 1.53727 3.23915 2.39081 2.38673C3.24434 1.53431 4.40136 1.05537 5.60781 1.05505H154.391C154.988 1.05505 155.58 1.17266 156.131 1.40115C156.683 1.62965 157.184 1.96456 157.606 2.38675C158.029 2.80894 158.363 3.31014 158.592 3.86174C158.82 4.41333 158.938 5.0045 158.938 5.60149L158.939 41.8106Z" fill="white"/>
<path d="M154.392 47.4074H5.60778C4.12224 47.4071 2.6975 46.8176 1.64618 45.7684C0.594854 44.7191 0.00282657 43.2957 0 41.8106L0 5.60273C0.00219764 4.11685 0.593835 2.69251 1.64512 1.64217C2.69641 0.591829 4.12151 0.00125414 5.60778 0L154.391 0C155.877 0.00187992 157.302 0.592656 158.353 1.64286C159.404 2.69307 159.996 4.11704 159.999 5.60273V41.8106C160.001 44.8977 157.481 47.4074 154.392 47.4074Z" fill="#A6A6A6"/>
<path d="M158.939 41.8106C158.939 42.4073 158.821 42.9981 158.593 43.5493C158.364 44.1005 158.029 44.6012 157.607 45.0229C157.185 45.4446 156.683 45.7789 156.132 46.0068C155.58 46.2347 154.989 46.3517 154.392 46.3511H5.60781C4.4019 46.3524 3.24487 45.8747 2.39117 45.0233C1.53746 44.1718 1.05699 43.0162 1.05542 41.8106V5.60149C1.05699 4.39536 1.53727 3.23915 2.39081 2.38673C3.24434 1.53431 4.40136 1.05537 5.60781 1.05505H154.391C154.988 1.05505 155.58 1.17266 156.131 1.40115C156.683 1.62965 157.184 1.96456 157.606 2.38675C158.029 2.80894 158.363 3.31014 158.592 3.86174C158.82 4.41333 158.938 5.0045 158.938 5.60149L158.939 41.8106Z" fill="black"/>
<path d="M35.7269 23.4542C35.6925 19.6333 38.8563 17.7744 39.001 17.6879C37.2092 15.0762 34.432 14.7193 33.456 14.6909C31.1235 14.4455 28.861 16.0862 27.6728 16.0862C26.4609 16.0862 24.6311 14.7146 22.6591 14.7549C20.1214 14.794 17.7474 16.2629 16.4454 18.5438C13.7583 23.1946 15.7623 30.029 18.3368 33.7883C19.6246 35.6306 21.1294 37.6851 23.099 37.6128C25.026 37.5345 25.7458 36.3858 28.0712 36.3858C30.3753 36.3858 31.0512 37.6128 33.06 37.5665C35.1281 37.5345 36.4301 35.7171 37.6728 33.8594C39.161 31.7504 39.7587 29.671 39.7824 29.5643C39.735 29.5477 35.7672 28.0326 35.7269 23.4542ZM31.9323 12.2179C32.9687 10.9222 33.6778 9.1593 33.4809 7.37036C31.9809 7.43675 30.1049 8.40768 29.0246 9.675C28.0688 10.7917 27.215 12.6222 27.4356 14.3435C29.1207 14.4692 30.8508 13.4935 31.9323 12.2179Z" fill="white"/>
<path d="M154.392 0H74.6985L105.913 47.4074H154.392C155.878 47.4062 157.303 46.8159 158.354 45.7661C159.405 44.7162 159.997 43.2925 160 41.8071V5.60273C159.997 4.11695 159.406 2.69279 158.354 1.64252C157.303 0.592243 155.878 0.00156715 154.392 0Z" fill="url(#paint0_linear_22_81)"/>
<path d="M63.637 37.3484H60.944L59.4688 32.7142H54.3413L52.9361 37.3484H50.3142L55.3955 21.5716H58.5332L63.637 37.3484ZM59.0241 30.7699L57.6901 26.6503C57.5489 26.2294 57.2833 25.2383 56.8944 23.6782H56.8469C56.6904 24.3492 56.4402 25.3403 56.0975 26.6503L54.786 30.7699H59.0241ZM76.6787 31.5204C76.6787 33.4551 76.1534 34.9844 75.1015 36.1071C74.16 37.1065 72.9896 37.6056 71.5939 37.6056C70.0867 37.6056 69.0028 37.0686 68.3447 35.9921V41.9612H65.8165V29.7113C65.8165 28.4961 65.7845 27.2502 65.7228 25.9722H67.9463L68.0874 27.7753H68.1348C68.9779 26.4167 70.2574 25.7374 71.9745 25.7374C73.3169 25.7374 74.4375 26.2674 75.334 27.3284C76.2293 28.3918 76.6787 29.7883 76.6787 31.5204ZM74.1031 31.6128C74.1031 30.5056 73.8541 29.5927 73.3536 28.8731C72.807 28.1251 72.0729 27.7504 71.1527 27.7504C70.529 27.7504 69.9622 27.9591 69.4558 28.3705C68.9483 28.7854 68.6163 29.3272 68.4609 29.9982C68.3916 30.2491 68.3522 30.5074 68.3435 30.7676V32.6656C68.3435 33.4919 68.5973 34.1902 69.1048 34.7616C69.6124 35.3306 70.2717 35.6163 71.0828 35.6163C72.035 35.6163 72.7761 35.2476 73.3062 34.5162C73.8375 33.7823 74.1031 32.815 74.1031 31.6128ZM89.7667 31.5204C89.7667 33.4551 89.2413 34.9844 88.1895 36.1071C87.2468 37.1065 86.0776 37.6056 84.6807 37.6056C83.1735 37.6056 82.0896 37.0686 81.4315 35.9921V41.9612H78.9033V29.7113C78.9033 28.4961 78.8713 27.2502 78.8096 25.9722H81.0331L81.1742 27.7753H81.2216C82.0635 26.4167 83.343 25.7374 85.0613 25.7374C86.4025 25.7374 87.5231 26.2674 88.4219 27.3284C89.3161 28.3918 89.7667 29.7883 89.7667 31.5204ZM87.1899 31.6128C87.1899 30.5056 86.9397 29.5927 86.4392 28.8731C85.8926 28.1251 85.1609 27.7504 84.2407 27.7504C83.617 27.7504 83.0501 27.9591 82.5414 28.3705C82.0339 28.7854 81.703 29.3272 81.5477 29.9982C81.4706 30.3112 81.4291 30.566 81.4291 30.7676V32.6656C81.4291 33.4919 81.6841 34.1902 82.1892 34.7616C82.6968 35.3294 83.3561 35.6163 84.1696 35.6163C85.123 35.6163 85.8641 35.2476 86.393 34.5162C86.9242 33.7823 87.1899 32.815 87.1899 31.6128ZM104.4 32.9228C104.4 34.266 103.93 35.3579 102.997 36.2008C101.97 37.1207 100.536 37.5819 98.6983 37.5819C97.0002 37.5819 95.6389 37.2547 94.612 36.5991L95.1966 34.4925C96.3053 35.1492 97.5232 35.4764 98.8489 35.4764C99.8023 35.4764 100.543 35.2607 101.072 34.8327C101.602 34.4035 101.87 33.8298 101.87 33.1137C101.87 32.4723 101.649 31.9353 101.213 31.4979C100.776 31.0616 100.053 30.655 99.0363 30.2815C96.2733 29.2513 94.8906 27.7445 94.8906 25.7623C94.8906 24.4678 95.3792 23.4079 96.3539 22.5792C97.3287 21.7518 98.6212 21.338 100.229 21.338C101.665 21.338 102.862 21.5882 103.812 22.0873L103.177 24.1477C102.283 23.664 101.274 23.4221 100.145 23.4221C99.2533 23.4221 98.5536 23.6415 98.0532 24.0777C97.6323 24.4678 97.4188 24.9432 97.4188 25.5075C97.4188 26.1299 97.6619 26.6467 98.1457 27.0522C98.5655 27.4256 99.3315 27.8322 100.439 28.2685C101.798 28.8162 102.797 29.454 103.436 30.1867C104.08 30.9193 104.4 31.8334 104.4 32.9228ZM112.78 27.869H109.993V33.3923C109.993 34.7971 110.484 35.4978 111.468 35.4978C111.92 35.4978 112.295 35.4598 112.591 35.3804L112.661 37.2998C112.163 37.4859 111.508 37.5795 110.695 37.5795C109.697 37.5795 108.917 37.2749 108.353 36.6655C107.792 36.0561 107.51 35.0354 107.51 33.5986V27.8643H105.85V25.9674H107.51V23.8845L109.993 23.1352V25.9674H112.78V27.869ZM125.328 31.5666C125.328 33.3152 124.828 34.7509 123.83 35.8736C122.785 37.0295 121.395 37.6056 119.663 37.6056C117.991 37.6056 116.661 37.052 115.67 35.9459C114.679 34.8374 114.183 33.4409 114.183 31.7563C114.183 29.9934 114.695 28.5495 115.716 27.4268C116.739 26.3029 118.117 25.741 119.85 25.741C121.52 25.741 122.861 26.2958 123.876 27.4031C124.846 28.4772 125.328 29.8642 125.328 31.5666ZM122.708 31.6247C122.708 30.5826 122.482 29.6888 122.031 28.9407C121.501 28.0373 120.742 27.5857 119.759 27.5857C118.746 27.5857 117.969 28.0373 117.44 28.9407C116.987 29.6888 116.762 30.598 116.762 31.6721C116.762 32.7154 116.987 33.6116 117.44 34.3573C117.987 35.2607 118.749 35.7124 119.737 35.7124C120.704 35.7124 121.461 35.2512 122.009 34.3348C122.474 33.5689 122.708 32.6691 122.708 31.6247ZM133.55 28.195C133.287 28.1476 133.02 28.1241 132.753 28.1251C131.864 28.1251 131.176 28.4594 130.692 29.1328C130.272 29.7255 130.061 30.4748 130.061 31.3793V37.3484H127.533V29.5548C127.535 28.3606 127.511 27.1665 127.459 25.9734H129.661L129.754 28.15H129.824C130.092 27.4019 130.512 26.7985 131.088 26.3468C131.616 25.9521 132.256 25.7384 132.915 25.7374C133.149 25.7374 133.36 25.754 133.547 25.7837L133.55 28.195ZM144.857 31.122C144.863 31.5063 144.832 31.8902 144.764 32.2684H137.18C137.208 33.3923 137.576 34.253 138.28 34.8457C138.919 35.3745 139.746 35.64 140.761 35.64C141.884 35.64 142.908 35.4622 143.83 35.103L144.226 36.8564C143.149 37.3258 141.878 37.5594 140.411 37.5594C138.646 37.5594 137.261 37.0401 136.253 36.004C135.248 34.9667 134.744 33.5725 134.744 31.8262C134.744 30.112 135.212 28.6834 136.15 27.5442C137.132 26.3278 138.459 25.7197 140.129 25.7197C141.769 25.7197 143.01 26.3278 143.853 27.5442C144.521 28.508 144.857 29.703 144.857 31.122ZM142.446 30.4665C142.464 29.716 142.298 29.0699 141.955 28.5234C141.517 27.8192 140.844 27.4683 139.941 27.4683C139.115 27.4683 138.441 27.8109 137.929 28.4985C137.508 29.045 137.258 29.7018 137.181 30.4641L142.446 30.4665Z" fill="white"/>
<path d="M53.6128 15.9938C52.9096 15.9938 52.3013 15.9594 51.7949 15.9013V8.2737C52.5031 8.16434 53.2188 8.11043 53.9353 8.11248C56.8347 8.11248 58.1699 9.53865 58.1699 11.8634C58.1699 14.5451 56.5928 15.9938 53.6128 15.9938ZM54.0373 9.09052C53.646 9.09052 53.3128 9.11423 53.0365 9.17114V14.9695C53.1859 14.9932 53.4729 15.0039 53.876 15.0039C55.7757 15.0039 56.8572 13.9227 56.8572 11.8978C56.8572 10.0923 55.8789 9.09052 54.0373 9.09052ZM62.331 16.0518C60.6969 16.0518 59.638 14.832 59.638 13.1758C59.638 11.4497 60.7195 10.2191 62.4235 10.2191C64.0338 10.2191 65.1165 11.3809 65.1165 13.0845C65.1165 14.832 64.0006 16.0518 62.331 16.0518ZM62.3784 11.1272C61.4808 11.1272 60.9056 11.9666 60.9056 13.1402C60.9056 14.2914 61.4926 15.1307 62.3666 15.1307C63.2405 15.1307 63.8275 14.2333 63.8275 13.1165C63.8275 11.9784 63.2524 11.1272 62.3784 11.1272ZM74.4347 10.3341L72.6856 15.925H71.5461L70.8215 13.4971C70.6414 12.9032 70.4914 12.3006 70.3721 11.6915H70.3484C70.2571 12.3009 70.0839 12.9114 69.9001 13.4971L69.1294 15.925H67.9779L66.332 10.3341H67.6091L68.2423 12.992C68.3918 13.6251 68.5175 14.2226 68.6218 14.7869H68.6455C68.7368 14.3163 68.8863 13.7282 69.1056 13.0039L69.9001 10.3353H70.9128L71.673 12.947C71.8568 13.5801 72.0062 14.2013 72.1224 14.7881H72.1556C72.2362 14.2131 72.3631 13.6026 72.535 12.947L73.2145 10.3353L74.4347 10.3341ZM80.8738 15.925H79.631V12.7146C79.631 11.7259 79.2516 11.2304 78.5033 11.2304C77.7669 11.2304 77.2606 11.8634 77.2606 12.5996V15.925H76.0178V11.9322C76.0178 11.4378 76.006 10.9079 75.9716 10.3329H77.0649L77.123 11.196H77.1574C77.4918 10.5985 78.1701 10.2191 78.9302 10.2191C80.1042 10.2191 80.875 11.1166 80.875 12.5771L80.8738 15.925ZM84.3008 15.925H83.0569V7.76868H84.3008V15.925ZM88.8319 16.0518C87.199 16.0518 86.1389 14.832 86.1389 13.1758C86.1389 11.4497 87.2203 10.2191 88.9232 10.2191C90.5347 10.2191 91.6162 11.3809 91.6162 13.0845C91.6174 14.832 90.5003 16.0518 88.8319 16.0518ZM88.8781 11.1272C87.9804 11.1272 87.4053 11.9666 87.4053 13.1402C87.4053 14.2914 87.9935 15.1307 88.8651 15.1307C89.7402 15.1307 90.326 14.2333 90.326 13.1165C90.3272 11.9784 89.7533 11.1272 88.8781 11.1272ZM96.516 15.925L96.4259 15.2813H96.3927C96.0132 15.7993 95.4595 16.0518 94.7575 16.0518C93.7554 16.0518 93.0439 15.35 93.0439 14.4064C93.0439 13.0264 94.2404 12.3127 96.3121 12.3127V12.2096C96.3121 11.4734 95.9219 11.1047 95.1511 11.1047C94.5997 11.1047 94.1159 11.2434 93.6902 11.5196L93.4376 10.7028C93.9546 10.3804 94.5997 10.2191 95.3575 10.2191C96.8184 10.2191 97.556 10.9897 97.556 12.5321V14.5913C97.556 15.1556 97.5809 15.5931 97.6366 15.9262L96.516 15.925ZM96.3453 13.1402C94.965 13.1402 94.2725 13.4745 94.2725 14.2677C94.2725 14.8545 94.6294 15.1414 95.1251 15.1414C95.7571 15.1414 96.3453 14.6589 96.3453 14.0033V13.1402ZM103.591 15.925L103.533 15.0276H103.498C103.141 15.7057 102.541 16.0518 101.703 16.0518C100.355 16.0518 99.3561 14.8663 99.3561 13.1983C99.3561 11.4497 100.391 10.2179 101.805 10.2179C102.553 10.2179 103.083 10.4705 103.382 10.9779H103.407V7.76868H104.651V14.4182C104.651 14.9588 104.664 15.465 104.697 15.925H103.591ZM103.407 12.6352C103.407 11.8528 102.889 11.1853 102.098 11.1853C101.176 11.1853 100.613 12.0021 100.613 13.1521C100.613 14.2795 101.198 15.0513 102.073 15.0513C102.854 15.0513 103.407 14.372 103.407 13.567V12.6352ZM112.538 16.0518C110.905 16.0518 109.846 14.832 109.846 13.1758C109.846 11.4497 110.927 10.2191 112.63 10.2191C114.242 10.2191 115.323 11.3809 115.323 13.0845C115.324 14.832 114.209 16.0518 112.538 16.0518ZM112.584 11.1272C111.688 11.1272 111.112 11.9666 111.112 13.1402C111.112 14.2914 111.699 15.1307 112.572 15.1307C113.447 15.1307 114.033 14.2333 114.033 13.1165C114.035 11.9784 113.46 11.1272 112.584 11.1272ZM122.007 15.925H120.763V12.7146C120.763 11.7259 120.383 11.2304 119.635 11.2304C118.899 11.2304 118.393 11.8634 118.393 12.5996V15.925H117.149V11.9322C117.149 11.4378 117.138 10.9079 117.103 10.3329H118.197L118.255 11.196H118.289C118.622 10.5985 119.302 10.2179 120.061 10.2179C121.235 10.2179 122.007 11.1154 122.007 12.5759V15.925ZM130.368 11.2659H129.001V13.9808C129.001 14.6719 129.24 15.0169 129.724 15.0169C129.943 15.0169 130.127 14.9932 130.275 14.9588L130.31 15.9025C130.069 15.9949 129.746 16.0412 129.346 16.0412C128.366 16.0412 127.78 15.5006 127.78 14.0851V11.2659H126.965V10.3341H127.78V9.30984L129.001 8.94115V10.3329H130.368V11.2659ZM136.947 15.925H135.705V12.7383C135.705 11.7378 135.327 11.2316 134.578 11.2316C133.934 11.2316 133.334 11.669 133.334 12.5546V15.925H132.092V7.76868H133.334V11.1272H133.359C133.75 10.5179 134.317 10.2179 135.04 10.2179C136.223 10.2179 136.947 11.1379 136.947 12.5996V15.925ZM143.687 13.4283H139.958C139.981 14.487 140.682 15.0845 141.72 15.0845C142.271 15.0845 142.779 14.992 143.227 14.8201L143.42 15.6832C142.891 15.9131 142.269 16.0281 141.544 16.0281C139.795 16.0281 138.76 14.9232 138.76 13.2102C138.76 11.4959 139.82 10.2073 141.404 10.2073C142.833 10.2073 143.73 11.2659 143.73 12.8652C143.738 13.0539 143.723 13.2429 143.687 13.4283ZM142.547 12.5427C142.547 11.6797 142.112 11.0703 141.318 11.0703C140.604 11.0703 140.039 11.6915 139.959 12.5427H142.547Z" fill="white"/>
<defs>
<linearGradient id="paint0_linear_22_81" x1="117.348" y1="47.5333" x2="117.348" y2="-123.441" gradientUnits="userSpaceOnUse">
<stop stop-color="#1A1A1A" stop-opacity="0.1"/>
<stop offset="0.123" stop-color="#212121" stop-opacity="0.151"/>
<stop offset="0.308" stop-color="#353535" stop-opacity="0.227"/>
<stop offset="0.532" stop-color="#575757" stop-opacity="0.318"/>
<stop offset="0.783" stop-color="#858585" stop-opacity="0.421"/>
<stop offset="1" stop-color="#B3B3B3" stop-opacity="0.51"/>
</linearGradient>
</defs>
</svg>
