<svg width="29" height="29" viewBox="0 0 29 29" fill="none" xmlns="http://www.w3.org/2000/svg">
<path d="M16.3729 16.1275L18.199 15.9678L17.7202 10.4875L12.2407 10.9669L12.4011 12.7936L14.7613 12.5878L10.3203 17.8803L11.7247 19.0588L16.1657 13.7662L16.3729 16.1275Z" fill="white"/>
<path fill-rule="evenodd" clip-rule="evenodd" d="M24.4004 13.6184C23.915 8.07037 19.0248 3.96703 13.4768 4.45241C7.92885 4.9378 3.82551 9.82797 4.3109 15.376C4.79628 20.9239 9.68645 25.0273 15.2344 24.5419C20.7824 24.0565 24.8858 19.1663 24.4004 13.6184ZM22.5743 13.7781C22.3836 11.5984 21.3348 9.5837 19.6587 8.17725C17.9825 6.77079 15.8163 6.08779 13.6366 6.27849C11.4569 6.4692 9.44218 7.51798 8.03573 9.19412C6.62928 10.8703 5.94627 13.0365 6.13698 15.2162C6.32768 17.3959 7.37646 19.4106 9.0526 20.8171C10.7287 22.2235 12.8949 22.9065 15.0747 22.7158C17.2544 22.5251 19.2691 21.4763 20.6755 19.8002C22.082 18.124 22.765 15.9578 22.5743 13.7781Z" fill="white"/>
</svg>
