<svg width="20" height="16" viewBox="0 0 20 16" fill="none" xmlns="http://www.w3.org/2000/svg">
<path d="M16.8156 0.72625H3.18473C2.57695 0.72625 1.99405 0.967692 1.56428 1.39746C1.13451 1.82723 0.893066 2.41013 0.893066 3.01792V12.9821C0.893066 13.5899 1.13451 14.1728 1.56428 14.6025C1.99405 15.0323 2.57695 15.2737 3.18473 15.2737H16.8156C17.4234 15.2737 18.0062 15.0323 18.436 14.6025C18.8658 14.1728 19.1072 13.5899 19.1072 12.9821V3.01792C19.1072 2.41013 18.8658 1.82723 18.436 1.39746C18.0062 0.967692 17.4234 0.72625 16.8156 0.72625ZM18.1906 9.82875H12.3056C11.8193 9.82875 11.353 9.6356 11.0092 9.29178C10.6654 8.94796 10.4722 8.48165 10.4722 7.99542C10.4722 7.50919 10.6654 7.04287 11.0092 6.69905C11.353 6.35524 11.8193 6.16208 12.3056 6.16208H18.1906V9.82875ZM12.3056 5.24542C11.5762 5.24542 10.8767 5.53515 10.361 6.05087C9.8453 6.5666 9.55557 7.26607 9.55557 7.99542C9.55557 8.72476 9.8453 9.42424 10.361 9.93996C10.8767 10.4557 11.5762 10.7454 12.3056 10.7454H18.1906V12.9821C18.1906 13.3468 18.0457 13.6965 17.7878 13.9544C17.53 14.2122 17.1802 14.3571 16.8156 14.3571H3.18473C2.82006 14.3571 2.47032 14.2122 2.21246 13.9544C1.9546 13.6965 1.80973 13.3468 1.80973 12.9821V3.01792C1.80973 2.65324 1.9546 2.30351 2.21246 2.04564C2.47032 1.78778 2.82006 1.64292 3.18473 1.64292H16.8156C17.1802 1.64292 17.53 1.78778 17.7878 2.04564C18.0457 2.30351 18.1906 2.65324 18.1906 3.01792V5.24542H12.3056Z" fill="white"/>
</svg>
