<svg width="11" height="11" viewBox="0 0 11 11" fill="none" xmlns="http://www.w3.org/2000/svg">
<path fill-rule="evenodd" clip-rule="evenodd" d="M0.447024 0.446875C0.570089 0.323847 0.736979 0.254734 0.910993 0.254734C1.08501 0.254734 1.2519 0.323847 1.37496 0.446875L5.50934 4.58125L9.64371 0.446875C9.76748 0.327334 9.93325 0.261188 10.1053 0.262683C10.2774 0.264178 10.442 0.333195 10.5637 0.454869C10.6853 0.576543 10.7543 0.741139 10.7558 0.913206C10.7573 1.08527 10.6912 1.25104 10.5716 1.37481L6.43727 5.50919L10.5716 9.64356C10.6912 9.76733 10.7573 9.9331 10.7558 10.1052C10.7543 10.2772 10.6853 10.4418 10.5637 10.5635C10.442 10.6852 10.2774 10.7542 10.1053 10.7557C9.93325 10.7572 9.76748 10.691 9.64371 10.5715L5.50934 6.43712L1.37496 10.5715C1.25119 10.691 1.08542 10.7572 0.913355 10.7557C0.741288 10.7542 0.576692 10.6852 0.455018 10.5635C0.333344 10.4418 0.264327 10.2772 0.262832 10.1052C0.261337 9.9331 0.327483 9.76733 0.447024 9.64356L4.5814 5.50919L0.447024 1.37481C0.323996 1.25175 0.254883 1.08486 0.254883 0.910844C0.254883 0.73683 0.323996 0.56994 0.447024 0.446875Z" fill="white"/>
</svg>
