<svg width="21" height="21" viewBox="0 0 21 21" fill="none" xmlns="http://www.w3.org/2000/svg">
<path d="M17.0625 3.5H14.4375V2.1875C14.4375 2.07147 14.3914 1.96019 14.3094 1.87814C14.2273 1.79609 14.116 1.75 14 1.75C13.884 1.75 13.7727 1.79609 13.6906 1.87814C13.6086 1.96019 13.5625 2.07147 13.5625 2.1875V3.5H7.4375V2.1875C7.4375 2.07147 7.39141 1.96019 7.30936 1.87814C7.22731 1.79609 7.11603 1.75 7 1.75C6.88397 1.75 6.77269 1.79609 6.69064 1.87814C6.60859 1.96019 6.5625 2.07147 6.5625 2.1875V3.5H3.9375C3.35755 3.50069 2.80156 3.73139 2.39147 4.14147C1.98139 4.55156 1.75069 5.10755 1.75 5.6875V17.0625C1.75069 17.6424 1.98139 18.1984 2.39147 18.6085C2.80156 19.0186 3.35755 19.2493 3.9375 19.25H17.0625C17.6427 19.25 18.1991 19.0195 18.6093 18.6093C19.0195 18.1991 19.25 17.6427 19.25 17.0625V5.6875C19.25 5.10734 19.0195 4.55094 18.6093 4.1407C18.1991 3.73047 17.6427 3.5 17.0625 3.5ZM18.375 17.0625C18.375 17.4106 18.2367 17.7444 17.9906 17.9906C17.7444 18.2367 17.4106 18.375 17.0625 18.375H3.9375C3.5894 18.375 3.25556 18.2367 3.00942 17.9906C2.76328 17.7444 2.625 17.4106 2.625 17.0625V9.625H18.375V17.0625ZM18.375 8.75H2.625V5.6875C2.625 4.963 3.21125 4.375 3.9375 4.375H6.5625V5.6875C6.5625 5.80353 6.60859 5.91481 6.69064 5.99686C6.77269 6.07891 6.88397 6.125 7 6.125C7.11603 6.125 7.22731 6.07891 7.30936 5.99686C7.39141 5.91481 7.4375 5.80353 7.4375 5.6875V4.375H13.5625V5.6875C13.5625 5.80353 13.6086 5.91481 13.6906 5.99686C13.7727 6.07891 13.884 6.125 14 6.125C14.116 6.125 14.2273 6.07891 14.3094 5.99686C14.3914 5.91481 14.4375 5.80353 14.4375 5.6875V4.375H17.0625C17.4106 4.375 17.7444 4.51328 17.9906 4.75942C18.2367 5.00556 18.375 5.3394 18.375 5.6875V8.75Z" fill="white"/>
</svg>
