<svg width="22" height="22" viewBox="0 0 22 22" fill="none" xmlns="http://www.w3.org/2000/svg">
<path d="M8.24984 2.97916C6.85193 2.97916 5.51127 3.53447 4.5228 4.52295C3.53432 5.51142 2.979 6.85208 2.979 8.24999V14.7647C2.979 14.9471 3.05144 15.1219 3.18037 15.2509C3.3093 15.3798 3.48417 15.4522 3.6665 15.4522C3.84884 15.4522 4.02371 15.3798 4.15264 15.2509C4.28157 15.1219 4.354 14.9471 4.354 14.7647V8.24999C4.354 7.21675 4.76446 6.22583 5.49507 5.49522C6.22568 4.76461 7.2166 4.35416 8.24984 4.35416H14.6784C14.8608 4.35416 15.0356 4.28172 15.1646 4.15279C15.2935 4.02386 15.3659 3.84899 15.3659 3.66666C15.3659 3.48432 15.2935 3.30945 15.1646 3.18052C15.0356 3.05159 14.8608 2.97916 14.6784 2.97916H8.24984Z" fill="white"/>
<path fill-rule="evenodd" clip-rule="evenodd" d="M16.8694 6.22691C13.8823 5.89502 10.8677 5.89502 7.8806 6.22691C7.46724 6.27283 7.08158 6.45724 6.78633 6.75016C6.49108 7.04307 6.30362 7.42727 6.25443 7.84025C5.90217 10.8532 5.90217 13.8968 6.25443 16.9097C6.30362 17.3227 6.49108 17.7069 6.78633 17.9998C7.08158 18.2928 7.46724 18.4772 7.8806 18.5231C10.8515 18.8549 13.8985 18.8549 16.8694 18.5231C17.2828 18.4772 17.6685 18.2928 17.9637 17.9998C18.259 17.7069 18.4464 17.3227 18.4956 16.9097C18.8479 13.8968 18.8479 10.8532 18.4956 7.84025C18.4464 7.42727 18.259 7.04307 17.9637 6.75016C17.6685 6.45724 17.2828 6.27283 16.8694 6.22691ZM8.03368 7.59366C10.9028 7.27283 13.8472 7.27283 16.7163 7.59366C16.8209 7.60523 16.9184 7.65169 16.9933 7.72554C17.0681 7.79939 17.1159 7.89632 17.1288 8.00066C17.4694 10.9069 17.4694 13.8431 17.1288 16.7493C17.1159 16.8537 17.0681 16.9506 16.9933 17.0245C16.9184 17.0983 16.8209 17.1448 16.7163 17.1563C13.8472 17.4772 10.9028 17.4772 8.03368 17.1563C7.92917 17.1448 7.83161 17.0983 7.75676 17.0245C7.68192 16.9506 7.63415 16.8537 7.62118 16.7493C7.2806 13.8431 7.2806 10.9069 7.62118 8.00066C7.63415 7.89632 7.68192 7.79939 7.75676 7.72554C7.83161 7.65169 7.92917 7.60523 8.03368 7.59366Z" fill="white"/>
</svg>
