<svg width="36" height="35" viewBox="0 0 36 35" fill="none" xmlns="http://www.w3.org/2000/svg">
<path d="M32.4208 3.67842C32.4092 3.62232 32.3819 3.57071 32.342 3.52965C32.3021 3.4886 32.2514 3.45981 32.1957 3.44668C28.4869 2.5375 19.9195 5.77705 15.2729 10.431C14.4448 11.2542 13.6897 12.1481 13.0161 13.1024C11.5839 12.9726 10.1516 13.0819 8.9322 13.6151C5.48871 15.1327 4.48683 19.0962 4.2072 20.7977C4.19205 20.8909 4.19852 20.9864 4.22611 21.0767C4.2537 21.167 4.30167 21.2497 4.36631 21.3185C4.43094 21.3872 4.51049 21.4401 4.59881 21.4731C4.68712 21.5061 4.78183 21.5182 4.87558 21.5086L10.4047 20.9002C10.4085 21.3182 10.4335 21.7357 10.4797 22.1512C10.5086 22.4383 10.6364 22.7064 10.8412 22.9093L12.982 25.0551C13.1846 25.2605 13.4523 25.3886 13.739 25.4174C14.151 25.4634 14.5651 25.4885 14.9796 25.4926L14.3733 31.0297C14.3639 31.1235 14.376 31.2183 14.4089 31.3067C14.4418 31.3951 14.4946 31.4747 14.5631 31.5393C14.6316 31.604 14.714 31.6521 14.804 31.6797C14.8939 31.7074 14.989 31.714 15.0819 31.6989C16.7801 31.4255 20.7427 30.4213 22.2479 26.9705C22.7798 25.7469 22.889 24.3189 22.7662 22.8901C23.7212 22.2156 24.6155 21.4587 25.439 20.6281C30.1026 15.9797 33.3142 7.58106 32.4208 3.67842ZM21.2937 14.6063C20.8864 14.1982 20.609 13.678 20.4965 13.1118C20.3841 12.5456 20.4417 11.9586 20.6621 11.4252C20.8825 10.8918 21.2558 10.4359 21.7347 10.1151C22.2136 9.79437 22.7767 9.62316 23.3527 9.62316C23.9287 9.62316 24.4918 9.79437 24.9707 10.1151C25.4497 10.4359 25.8229 10.8918 26.0433 11.4252C26.2637 11.9586 26.3213 12.5456 26.2089 13.1118C26.0965 13.678 25.8191 14.1982 25.4117 14.6063C25.1415 14.8777 24.8206 15.093 24.4673 15.2399C24.114 15.3869 23.7352 15.4625 23.3527 15.4625C22.9702 15.4625 22.5915 15.3869 22.2382 15.2399C21.8848 15.093 21.5639 14.8777 21.2937 14.6063Z" stroke="white" stroke-linecap="round" stroke-linejoin="round"/>
<path d="M8.40227 24.0625C7.72238 24.1462 7.08986 24.4551 6.60516 24.9402C5.40345 26.1488 5.28955 30.625 5.28955 30.625C5.28955 30.625 9.75811 30.5108 10.9605 29.305C11.4465 28.8199 11.7552 28.1849 11.8369 27.5023" stroke="white" stroke-linecap="round" stroke-linejoin="round"/>
</svg>
