<svg width="17" height="19" viewBox="0 0 17 19" fill="none" xmlns="http://www.w3.org/2000/svg">
<path d="M15.9375 12.825V6.175C15.9371 5.88392 15.8607 5.598 15.7158 5.34554C15.5709 5.09308 15.3626 4.88284 15.1115 4.73562L9.326 1.41062C9.0751 1.26494 8.79013 1.18821 8.5 1.18821C8.20987 1.18821 7.9249 1.26494 7.674 1.41062L1.8885 4.73562C1.6368 4.88217 1.42802 5.09226 1.28306 5.34488C1.13809 5.59749 1.06204 5.88375 1.0625 6.175V12.8267C1.06307 13.1177 1.13957 13.4034 1.28444 13.6557C1.42931 13.908 1.63753 14.1181 1.8885 14.2652L7.674 17.5902C7.9249 17.7359 8.20987 17.8127 8.5 17.8127C8.79013 17.8127 9.0751 17.7359 9.326 17.5902L15.1115 14.2652C15.3633 14.1186 15.5722 13.9084 15.7172 13.6556C15.8621 13.4028 15.9381 13.1164 15.9375 12.825Z" stroke="white" stroke-width="1.375" stroke-linecap="round" stroke-linejoin="round"/>
<path d="M8.5 13V8.625H8.0625M8.0625 13H8.9375M8.5 6.4375V6" stroke="white" stroke-width="1.375" stroke-linecap="round" stroke-linejoin="round"/>
</svg>
