<svg width="18" height="18" viewBox="0 0 18 18" fill="none" xmlns="http://www.w3.org/2000/svg">
<path d="M10.081 7.712L5.29502 1.002C5.23951 0.924043 5.16617 0.860494 5.0811 0.816656C4.99603 0.772818 4.90171 0.749963 4.80602 0.75H2.28002C2.16992 0.750141 2.06198 0.780574 1.96802 0.837966C1.87406 0.895358 1.79771 0.977497 1.74732 1.07539C1.69693 1.17328 1.67444 1.28315 1.68233 1.39296C1.69021 1.50278 1.72816 1.60831 1.79202 1.698L7.91902 10.288M10.081 7.712L16.208 16.302C16.2719 16.3917 16.3098 16.4972 16.3177 16.607C16.3256 16.7169 16.3031 16.8267 16.2527 16.9246C16.2023 17.0225 16.126 17.1046 16.032 17.162C15.9381 17.2194 15.8301 17.2499 15.72 17.25H13.194C13.0983 17.25 13.004 17.2272 12.9189 17.1833C12.8339 17.1395 12.7605 17.076 12.705 16.998L7.91902 10.288M10.081 7.712L15.923 0.75M7.91902 10.288L2.07702 17.25" stroke="white" stroke-width="1.5" stroke-linecap="round" stroke-linejoin="round"/>
</svg>
