<svg width="230" height="65" viewBox="0 0 230 65" fill="none" xmlns="http://www.w3.org/2000/svg">
<g filter="url(#filter0_d_72_159)">
<path d="M33 3.14V11.05H12.63V23.58H28.24V31.35H12.63V52H2.83V3.14H33ZM62.6291 52.49C58.0558 52.49 53.8558 51.4167 50.0291 49.27C46.2025 47.1233 43.1691 44.16 40.9291 40.38C38.6891 36.5533 37.5691 32.2367 37.5691 27.43C37.5691 22.67 38.6891 18.4 40.9291 14.62C43.1691 10.7933 46.2025 7.80666 50.0291 5.66C53.8558 3.51333 58.0558 2.44 62.6291 2.44C67.2491 2.44 71.4491 3.51333 75.2291 5.66C79.0558 7.80666 82.0658 10.7933 84.2591 14.62C86.4991 18.4 87.6191 22.67 87.6191 27.43C87.6191 32.2367 86.4991 36.5533 84.2591 40.38C82.0658 44.16 79.0558 47.1233 75.2291 49.27C71.4025 51.4167 67.2025 52.49 62.6291 52.49ZM62.6291 43.74C65.5691 43.74 68.1591 43.0867 70.3991 41.78C72.6391 40.4267 74.3891 38.5133 75.6491 36.04C76.9091 33.5667 77.5391 30.6967 77.5391 27.43C77.5391 24.1633 76.9091 21.3167 75.6491 18.89C74.3891 16.4167 72.6391 14.5267 70.3991 13.22C68.1591 11.9133 65.5691 11.26 62.6291 11.26C59.6891 11.26 57.0758 11.9133 54.7891 13.22C52.5491 14.5267 50.7991 16.4167 49.5391 18.89C48.2791 21.3167 47.6491 24.1633 47.6491 27.43C47.6491 30.6967 48.2791 33.5667 49.5391 36.04C50.7991 38.5133 52.5491 40.4267 54.7891 41.78C57.0758 43.0867 59.6891 43.74 62.6291 43.74ZM149.554 11.05V23.3H166.004V31.07H149.554V44.02H168.104V52H139.754V3.07H168.104V11.05H149.554ZM206.27 52L195.7 35.55L186.11 52H175.05L190.45 27.36L174.84 3.14H186.11L196.68 19.52L206.2 3.14H217.26L201.93 27.71L217.54 52H206.27Z" fill="white"/>
<path d="M120.11 52L109.33 32.96H104.71V52H94.9101V3.14H113.25C117.03 3.14 120.25 3.81667 122.91 5.17C125.57 6.47666 127.553 8.27333 128.86 10.56C130.213 12.8 130.89 15.32 130.89 18.12C130.89 21.34 129.957 24.2567 128.09 26.87C126.223 29.4367 123.447 31.21 119.76 32.19L131.45 52H120.11ZM104.71 25.61H112.9C115.56 25.61 117.543 24.98 118.85 23.72C120.157 22.4133 120.81 20.6167 120.81 18.33C120.81 16.09 120.157 14.3633 118.85 13.15C117.543 11.89 115.56 11.26 112.9 11.26H104.71V25.61Z" fill="url(#paint0_linear_72_159)"/>
</g>
<defs>
<filter id="filter0_d_72_159" x="0.830078" y="0.440002" width="228.71" height="64.05" filterUnits="userSpaceOnUse" color-interpolation-filters="sRGB">
<feFlood flood-opacity="0" result="BackgroundImageFix"/>
<feColorMatrix in="SourceAlpha" type="matrix" values="0 0 0 0 0 0 0 0 0 0 0 0 0 0 0 0 0 0 127 0" result="hardAlpha"/>
<feOffset dx="5" dy="5"/>
<feGaussianBlur stdDeviation="3.5"/>
<feComposite in2="hardAlpha" operator="out"/>
<feColorMatrix type="matrix" values="0 0 0 0 0 0 0 0 0 0 0 0 0 0 0 0 0 0 0.25 0"/>
<feBlend mode="normal" in2="BackgroundImageFix" result="effect1_dropShadow_72_159"/>
<feBlend mode="normal" in="SourceGraphic" in2="effect1_dropShadow_72_159" result="shape"/>
</filter>
<linearGradient id="paint0_linear_72_159" x1="95.9162" y1="2.09677" x2="95.3532" y2="50.6452" gradientUnits="userSpaceOnUse">
<stop stop-color="#56CAFC"/>
<stop offset="1" stop-color="#B678FF"/>
</linearGradient>
</defs>
</svg>