<svg width="16" height="12" viewBox="0 0 16 12" fill="none" xmlns="http://www.w3.org/2000/svg">
<path fill-rule="evenodd" clip-rule="evenodd" d="M9.23121 0.278396C9.35228 0.1774 9.49208 0.101255 9.6426 0.0543119C9.79312 0.00736914 9.95141 -0.00945024 10.1084 0.00481451C10.2655 0.0190793 10.4181 0.0641486 10.5577 0.137447C10.6973 0.210745 10.8211 0.310835 10.922 0.431997L14.9216 5.232C15.027 5.35243 15.1072 5.49271 15.1575 5.6446C15.2079 5.79648 15.2273 5.9569 15.2147 6.11642C15.2022 6.27593 15.1578 6.43132 15.0843 6.57344C15.0108 6.71557 14.9096 6.84155 14.7867 6.94399C14.6637 7.04642 14.5216 7.12324 14.3685 7.16992C14.2155 7.2166 14.0546 7.2322 13.8955 7.2158C13.7363 7.19941 13.582 7.15134 13.4417 7.07444C13.3014 6.99753 13.1779 6.89334 13.0784 6.768L9.07761 1.968C8.87401 1.72354 8.77582 1.40823 8.80462 1.0914C8.83342 0.774564 8.98686 0.482135 9.23121 0.278396Z" fill="white"/>
<path fill-rule="evenodd" clip-rule="evenodd" d="M9.23121 11.7216C8.98686 11.5179 8.83342 11.2254 8.80462 10.9086C8.77582 10.5918 8.87401 10.2765 9.07761 10.032L13.0784 5.232C13.1779 5.10666 13.3014 5.00247 13.4417 4.92556C13.582 4.84866 13.7363 4.80059 13.8955 4.7842C14.0546 4.7678 14.2155 4.7834 14.3685 4.83008C14.5216 4.87676 14.6637 4.95358 14.7867 5.05601C14.9096 5.15845 15.0108 5.28443 15.0843 5.42656C15.1578 5.56868 15.2022 5.72407 15.2147 5.88358C15.2273 6.0431 15.2079 6.20352 15.1575 6.3554C15.1072 6.50729 15.027 6.64757 14.9216 6.768L10.922 11.568C10.8211 11.6892 10.6973 11.7893 10.5577 11.8626C10.4181 11.9359 10.2655 11.9809 10.1084 11.9952C9.95141 12.0094 9.79312 11.9926 9.6426 11.9457C9.49208 11.8987 9.35228 11.8226 9.23121 11.7216Z" fill="white"/>
<path fill-rule="evenodd" clip-rule="evenodd" d="M12.8 6C12.8 6.31826 12.6736 6.62349 12.4485 6.84853C12.2235 7.07357 11.9183 7.2 11.6 7.2L2.00002 7.2C1.68176 7.2 1.37653 7.07357 1.15149 6.84853C0.926446 6.62349 0.800018 6.31826 0.800018 6C0.800018 5.68174 0.926446 5.37652 1.15149 5.15148C1.37653 4.92643 1.68176 4.8 2.00002 4.8L11.6 4.8C11.9183 4.8 12.2235 4.92643 12.4485 5.15148C12.6736 5.37652 12.8 5.68174 12.8 6Z" fill="white"/>
</svg>
