<svg width="36" height="35" viewBox="0 0 36 35" fill="none" xmlns="http://www.w3.org/2000/svg">
<g clip-path="url(#clip0_135_46)">
<path d="M22.2821 10.9375C22.2821 10.7925 22.3397 10.6534 22.4422 10.5508C22.5448 10.4482 22.6839 10.3906 22.8289 10.3906H34.8602C35.0052 10.3906 35.1443 10.4482 35.2469 10.5508C35.3494 10.6534 35.4071 10.7925 35.4071 10.9375C35.4071 11.0825 35.3494 11.2216 35.2469 11.3242C35.1443 11.4268 35.0052 11.4844 34.8602 11.4844H22.8289C22.6839 11.4844 22.5448 11.4268 22.4422 11.3242C22.3397 11.2216 22.2821 11.0825 22.2821 10.9375ZM34.8602 16.9531H22.8289C22.6839 16.9531 22.5448 17.0107 22.4422 17.1133C22.3397 17.2159 22.2821 17.355 22.2821 17.5C22.2821 17.645 22.3397 17.7841 22.4422 17.8867C22.5448 17.9893 22.6839 18.0469 22.8289 18.0469H34.8602C35.0052 18.0469 35.1443 17.9893 35.2469 17.8867C35.3494 17.7841 35.4071 17.645 35.4071 17.5C35.4071 17.355 35.3494 17.2159 35.2469 17.1133C35.1443 17.0107 35.0052 16.9531 34.8602 16.9531ZM34.8602 23.5156H26.1102C25.9651 23.5156 25.826 23.5732 25.7235 23.6758C25.6209 23.7784 25.5633 23.9175 25.5633 24.0625C25.5633 24.2075 25.6209 24.3466 25.7235 24.4492C25.826 24.5518 25.9651 24.6094 26.1102 24.6094H34.8602C35.0052 24.6094 35.1443 24.5518 35.2469 24.4492C35.3494 24.3466 35.4071 24.2075 35.4071 24.0625C35.4071 23.9175 35.3494 23.7784 35.2469 23.6758C35.1443 23.5732 35.0052 23.5156 34.8602 23.5156ZM21.1705 26.1133C21.2067 26.2536 21.1857 26.4025 21.1121 26.5274C21.0385 26.6522 20.9184 26.7427 20.7781 26.7791C20.7335 26.7908 20.6876 26.7967 20.6414 26.7969C20.5203 26.7968 20.4025 26.7565 20.3068 26.6822C20.211 26.608 20.1426 26.504 20.1123 26.3867C19.1949 22.8211 15.7373 20.2344 11.8914 20.2344C8.04553 20.2344 4.58928 22.8211 3.67053 26.3867C3.65485 26.4586 3.62482 26.5266 3.58225 26.5866C3.53968 26.6466 3.48545 26.6974 3.42279 26.7359C3.36013 26.7744 3.29034 26.8 3.21759 26.8109C3.14485 26.8218 3.07064 26.818 2.99941 26.7996C2.92819 26.7812 2.86141 26.7486 2.80307 26.7038C2.74473 26.659 2.69603 26.6028 2.65989 26.5388C2.62375 26.4747 2.60091 26.404 2.59274 26.3309C2.58457 26.2578 2.59123 26.1838 2.61233 26.1133C3.4217 22.9687 5.97151 20.4887 9.1092 19.5508C7.91556 18.9281 6.96528 17.9231 6.41044 16.6964C5.85559 15.4698 5.72826 14.0925 6.04881 12.7849C6.36935 11.4773 7.11926 10.3151 8.17851 9.48414C9.23776 8.65319 10.5451 8.20158 11.8914 8.20158C13.2377 8.20158 14.5451 8.65319 15.6043 9.48414C16.6636 10.3151 17.4135 11.4773 17.7341 12.7849C18.0546 14.0925 17.9273 15.4698 17.3724 16.6964C16.8176 17.9231 15.8673 18.9281 14.6737 19.5508C17.8114 20.4887 20.368 22.9687 21.1705 26.1133ZM11.8914 19.1406C12.8649 19.1406 13.8165 18.852 14.6259 18.3111C15.4353 17.7703 16.0661 17.0016 16.4386 16.1023C16.8112 15.2029 16.9086 14.2133 16.7187 13.2585C16.5288 12.3038 16.0601 11.4268 15.3717 10.7385C14.6834 10.0501 13.8064 9.58136 12.8516 9.39144C11.8969 9.20153 10.9073 9.299 10.0079 9.67153C9.10855 10.0441 8.33986 10.6749 7.79904 11.4843C7.25822 12.2937 6.96955 13.2453 6.96955 14.2187C6.96955 15.5241 7.48811 16.776 8.41114 17.699C9.33417 18.6221 10.5861 19.1406 11.8914 19.1406Z" fill="white"/>
</g>
<defs>
<clipPath id="clip0_135_46">
<rect width="35" height="35" fill="white" transform="translate(0.954102)"/>
</clipPath>
</defs>
</svg>
