<svg width="22" height="22" viewBox="0 0 22 22" fill="none" xmlns="http://www.w3.org/2000/svg">
<path d="M8.90486 19.381H13.0953M11.0001 2.61906V1.57144M16.2382 4.7143L17.2858 3.66668M5.762 4.7143L4.71438 3.66668M16.2382 14.1429L17.2858 15.1905M5.762 14.1429L4.71438 15.1905M3.66676 8.90478H2.61914M19.381 8.90478H18.3334M11.0001 5.23811C12.0638 5.23746 13.0964 5.59653 13.9302 6.25697C14.7639 6.91741 15.3499 7.8404 15.5927 8.87596C15.8356 9.91153 15.7211 10.9988 15.2679 11.9611C14.8147 12.9233 14.0494 13.7041 13.0964 14.1764L13.0953 15.1905C13.0953 15.7462 12.8746 16.2791 12.4817 16.672C12.0887 17.065 11.5558 17.2857 11.0001 17.2857C10.4444 17.2857 9.91147 17.065 9.51854 16.672C9.1256 16.2791 8.90486 15.7462 8.90486 15.1905V14.1764C7.9519 13.7041 7.18664 12.9235 6.73342 11.9613C6.2802 10.9991 6.16565 9.91198 6.40838 8.87648C6.65112 7.84098 7.23687 6.91798 8.07047 6.25746C8.90407 5.59693 9.93652 5.23769 11.0001 5.23811Z" stroke="white" stroke-width="1.04762" stroke-linecap="round" stroke-linejoin="round"/>
</svg>
