<svg width="156" height="48" viewBox="0 0 156 48" fill="none" xmlns="http://www.w3.org/2000/svg">
<g filter="url(#filter0_d_72_282)">
<path d="M22 2.892V8.09H8.614V16.324H18.872V21.43H8.614V35H2.174V2.892H22ZM41.4706 35.322C38.4652 35.322 35.7052 34.6167 33.1906 33.206C30.6759 31.7953 28.6826 29.848 27.2106 27.364C25.7386 24.8493 25.0026 22.0127 25.0026 18.854C25.0026 15.726 25.7386 12.92 27.2106 10.436C28.6826 7.92133 30.6759 5.95866 33.1906 4.548C35.7052 3.13733 38.4652 2.432 41.4706 2.432C44.5066 2.432 47.2666 3.13733 49.7506 4.548C52.2652 5.95866 54.2432 7.92133 55.6846 10.436C57.1566 12.92 57.8926 15.726 57.8926 18.854C57.8926 22.0127 57.1566 24.8493 55.6846 27.364C54.2432 29.848 52.2652 31.7953 49.7506 33.206C47.2359 34.6167 44.4759 35.322 41.4706 35.322ZM41.4706 29.572C43.4026 29.572 45.1046 29.1427 46.5766 28.284C48.0486 27.3947 49.1986 26.1373 50.0266 24.512C50.8546 22.8867 51.2686 21.0007 51.2686 18.854C51.2686 16.7073 50.8546 14.8367 50.0266 13.242C49.1986 11.6167 48.0486 10.3747 46.5766 9.516C45.1046 8.65733 43.4026 8.228 41.4706 8.228C39.5386 8.228 37.8212 8.65733 36.3186 9.516C34.8466 10.3747 33.6966 11.6167 32.8686 13.242C32.0406 14.8367 31.6266 16.7073 31.6266 18.854C31.6266 21.0007 32.0406 22.8867 32.8686 24.512C33.6966 26.1373 34.8466 27.3947 36.3186 28.284C37.8212 29.1427 39.5386 29.572 41.4706 29.572ZM98.5925 8.09V16.14H109.403V21.246H98.5925V29.756H110.783V35H92.1525V2.846H110.783V8.09H98.5925ZM135.863 35L128.917 24.19L122.615 35H115.347L125.467 18.808L115.209 2.892H122.615L129.561 13.656L135.817 2.892H143.085L133.011 19.038L143.269 35H135.863Z" fill="white"/>
<path d="M79.2438 35L72.1598 22.488H69.1238V35H62.6838V2.892H74.7358C77.2198 2.892 79.3358 3.33667 81.0838 4.226C82.8318 5.08467 84.1351 6.26533 84.9938 7.768C85.8831 9.24 86.3278 10.896 86.3278 12.736C86.3278 14.852 85.7144 16.7687 84.4878 18.486C83.2611 20.1727 81.4364 21.338 79.0138 21.982L86.6958 35H79.2438ZM69.1238 17.658H74.5058C76.2538 17.658 77.5571 17.244 78.4158 16.416C79.2744 15.5573 79.7038 14.3767 79.7038 12.874C79.7038 11.402 79.2744 10.2673 78.4158 9.47C77.5571 8.642 76.2538 8.228 74.5058 8.228H69.1238V17.658Z" fill="url(#paint0_linear_72_282)"/>
</g>
<defs>
<filter id="filter0_d_72_282" x="0.174011" y="0.432007" width="155.095" height="46.89" filterUnits="userSpaceOnUse" color-interpolation-filters="sRGB">
<feFlood flood-opacity="0" result="BackgroundImageFix"/>
<feColorMatrix in="SourceAlpha" type="matrix" values="0 0 0 0 0 0 0 0 0 0 0 0 0 0 0 0 0 0 127 0" result="hardAlpha"/>
<feOffset dx="5" dy="5"/>
<feGaussianBlur stdDeviation="3.5"/>
<feComposite in2="hardAlpha" operator="out"/>
<feColorMatrix type="matrix" values="0 0 0 0 0 0 0 0 0 0 0 0 0 0 0 0 0 0 0.25 0"/>
<feBlend mode="normal" in2="BackgroundImageFix" result="effect1_dropShadow_72_282"/>
<feBlend mode="normal" in="SourceGraphic" in2="effect1_dropShadow_72_282" result="shape"/>
</filter>
<linearGradient id="paint0_linear_72_282" x1="63.1066" y1="1.80645" x2="62.7352" y2="33.7097" gradientUnits="userSpaceOnUse">
<stop stop-color="#56CAFC"/>
<stop offset="1" stop-color="#B678FF"/>
</linearGradient>
</defs>
</svg>
