<svg width="20" height="20" viewBox="0 0 20 20" fill="none" xmlns="http://www.w3.org/2000/svg">
<path d="M18.4064 13.1458L16.5105 11.7917C16.823 10.6667 16.8439 9.44792 16.5105 8.22917L18.4064 6.89583L16.896 4.29167L14.7814 5.25C13.9585 4.41667 12.9168 3.77083 11.698 3.46875L11.4897 1.16667H8.46887L8.26054 3.46875C7.04179 3.77083 6.00012 4.41667 5.17721 5.25L3.06262 4.29167L1.55221 6.89583L3.44804 8.22917C3.11471 9.44792 3.13554 10.6667 3.44804 11.7917L1.55221 13.1458L3.06262 15.75L5.17721 14.7812C6.00012 15.6042 7.04179 16.2292 8.26054 16.5521L8.46887 18.875H11.4897L11.698 16.5521C12.9168 16.2292 13.9585 15.6042 14.7814 14.7812L16.896 15.75L18.4064 13.1458ZM12.0626 0.125C12.3439 0.125 12.5835 0.333333 12.5835 0.604167L12.771 2.72917C13.5626 3.02083 14.271 3.44792 14.9064 3.95833L16.8335 3.05208C17.073 2.92708 17.3751 3.01042 17.521 3.25L19.6043 6.89583C19.7501 7.11458 19.6668 7.41667 19.4376 7.57292L17.698 8.79167C17.8335 9.625 17.823 10.4479 17.698 11.25L19.4376 12.4688C19.6668 12.625 19.7501 12.9271 19.6043 13.1458L17.521 16.7917C17.3751 17.0104 17.073 17.0938 16.8335 16.9688L14.9064 16.0729C14.271 16.5833 13.5626 17 12.771 17.3125L12.5835 19.3958C12.5835 19.6979 12.3439 19.9167 12.0626 19.9167H7.89596C7.75782 19.9167 7.62535 19.8618 7.52767 19.7641C7.43 19.6664 7.37512 19.534 7.37512 19.3958L7.18762 17.3125C6.39596 17 5.68762 16.5833 5.05221 16.0729L3.12512 16.9688C2.88554 17.0938 2.58346 17.0104 2.43762 16.7917L0.354289 13.1458C0.208456 12.9271 0.291789 12.625 0.520956 12.4688L2.26054 11.25C2.13554 10.4479 2.12512 9.625 2.26054 8.79167L0.520956 7.57292C0.291789 7.41667 0.208456 7.11458 0.354289 6.89583L2.43762 3.25C2.58346 3.01042 2.88554 2.92708 3.12512 3.05208L5.05221 3.95833C5.68762 3.44792 6.39596 3.02083 7.18762 2.72917L7.37512 0.604167C7.37512 0.333333 7.61471 0.125 7.89596 0.125H12.0626ZM9.97929 6.375C10.9462 6.375 11.8736 6.75911 12.5573 7.44284C13.241 8.12657 13.6251 9.0539 13.6251 10.0208C13.6251 10.9878 13.241 11.9151 12.5573 12.5988C11.8736 13.2826 10.9462 13.6667 9.97929 13.6667C9.01235 13.6667 8.08502 13.2826 7.4013 12.5988C6.71757 11.9151 6.33346 10.9878 6.33346 10.0208C6.33346 9.0539 6.71757 8.12657 7.4013 7.44284C8.08502 6.75911 9.01235 6.375 9.97929 6.375ZM9.97929 7.41667C9.28862 7.41667 8.62624 7.69103 8.13787 8.17941C7.64949 8.66778 7.37512 9.33016 7.37512 10.0208C7.37512 10.7115 7.64949 11.3739 8.13787 11.8623C8.62624 12.3506 9.28862 12.625 9.97929 12.625C10.67 12.625 11.3323 12.3506 11.8207 11.8623C12.3091 11.3739 12.5835 10.7115 12.5835 10.0208C12.5835 9.33016 12.3091 8.66778 11.8207 8.17941C11.3323 7.69103 10.67 7.41667 9.97929 7.41667Z" fill="white"/>
</svg>
