<svg width="16" height="16" viewBox="0 0 16 16" fill="none" xmlns="http://www.w3.org/2000/svg">
<path d="M2.11113 9.3576C1.50942 9.95931 1.17139 10.7754 1.17139 11.6263C1.17139 12.4773 1.50942 13.2934 2.11113 13.8951C2.71284 14.4968 3.52894 14.8348 4.37988 14.8348C5.23083 14.8348 6.04692 14.4968 6.64863 13.8951M8.91555 7.09068C9.21351 7.38861 9.44986 7.7423 9.61111 8.13158C9.77237 8.52085 9.85537 8.93808 9.85537 9.35943C9.85537 9.78078 9.77237 10.198 9.61111 10.5873C9.44986 10.9766 9.21351 11.3303 8.91555 11.6282L6.6468 13.8969M4.37805 7.09068L2.1093 9.35943M13.8949 6.64885C14.4966 6.04714 14.8346 5.23104 14.8346 4.3801C14.8346 3.52915 14.4966 2.71306 13.8949 2.11135C13.2932 1.50964 12.4771 1.1716 11.6261 1.1716C10.7752 1.1716 9.95909 1.50964 9.35738 2.11135M7.0923 8.91668C6.79434 8.61876 6.55799 8.26506 6.39674 7.87578C6.23548 7.48651 6.15249 7.06928 6.15249 6.64793C6.15249 6.22658 6.23548 5.80935 6.39674 5.42008C6.55799 5.03081 6.79434 4.67711 7.0923 4.37918L9.36013 2.11043M11.628 8.91668L13.8967 6.64793" stroke="white" stroke-width="0.916667" stroke-linecap="round" stroke-linejoin="round"/>
</svg>
