<svg width="79" height="37" viewBox="0 0 79 37" fill="none" xmlns="http://www.w3.org/2000/svg">
<rect width="79" height="37" rx="5" fill="white"/>
<g clip-path="url(#clip0_92_295)">
<path d="M33.2618 7.31937L25.93 24.8102H21.1468L17.5387 10.8509C17.32 9.99316 17.1299 9.6775 16.4643 9.31481C15.3762 8.72375 13.5794 8.17097 12 7.82709L12.1065 7.31937H19.8074C20.7874 7.31937 21.6698 7.97191 21.8943 9.10175L23.8007 19.224L28.5073 7.31937H33.2618ZM39.7281 7.31937L35.9868 24.8102H31.4613L35.203 7.31937H39.7281ZM52.0035 19.0995C52.0223 14.4841 45.6217 14.2279 45.6634 12.1658C45.6787 11.5388 46.2759 10.8714 47.5832 10.7008C48.2307 10.617 50.0196 10.5503 52.0459 11.4839L52.8387 7.77262C51.7499 7.37887 50.3488 7 48.6061 7C44.1326 7 40.9859 9.37606 40.9608 12.7811C40.9314 15.2998 43.2084 16.7035 44.9208 17.5424C46.6846 18.3991 47.2761 18.9497 47.268 19.7153C47.2553 20.8889 45.8592 21.4084 44.5614 21.4277C42.2855 21.4637 40.9662 20.8125 39.9138 20.3223L39.0924 24.1566C40.1512 24.6417 42.1024 25.0633 44.1234 25.0847C48.8791 25.0847 51.9895 22.7358 52.0035 19.0995ZM63.816 24.8104H68L64.3447 7.31937H60.4844C59.6138 7.31937 58.8821 7.82469 58.5574 8.60147L51.7674 24.8102H56.5193L57.4619 22.1974H63.2676L63.816 24.8104ZM58.765 18.6134L61.1477 12.045L62.5164 18.6134H58.765ZM45.5197 29.6249H43.6809V31.3362H45.7376V31.8507H43.0614V27.1031H45.6322V27.6176H43.6809V29.1176H45.5195L45.5197 29.6249ZM46.6876 26.8498H47.3071V31.8504H46.6876V26.8498ZM48.8703 30.2586C48.8843 31.0971 49.4128 31.442 50.0393 31.442C50.4834 31.442 50.7579 31.3646 50.9837 31.2662L51.0961 31.71C50.8778 31.8084 50.4976 31.9281 49.9549 31.9281C48.9058 31.9281 48.279 31.2309 48.279 30.2024C48.279 29.1742 48.8843 28.371 49.8777 28.371C50.9977 28.371 51.2864 29.3433 51.2864 29.9701C51.2864 30.0967 51.2792 30.1882 51.265 30.2588L48.8703 30.2586ZM50.6875 29.815C50.6947 29.4278 50.5256 28.8148 49.8282 28.8148C49.1943 28.8148 48.9265 29.3853 48.8771 29.815H50.6875ZM54.6587 31.7308C54.4968 31.8084 54.1374 31.9283 53.6797 31.9283C52.6514 31.9283 51.9823 31.2309 51.9823 30.1884C51.9823 29.1388 52.7004 28.3712 53.8134 28.3712C54.1796 28.3712 54.5036 28.4624 54.6727 28.5543L54.5322 29.0262C54.3837 28.9487 54.1514 28.8638 53.8134 28.8638C53.0314 28.8638 52.6092 29.4486 52.6092 30.1534C52.6092 30.942 53.1162 31.428 53.7924 31.428C54.1446 31.428 54.3769 31.3436 54.553 31.2662L54.6587 31.7308ZM56.3973 27.6244V28.4414H57.2845V28.9131H56.3973V30.7517C56.3973 31.1747 56.5172 31.4138 56.8621 31.4138C57.031 31.4138 57.1299 31.4 57.2215 31.3714L57.2498 31.8439C57.1299 31.8859 56.9398 31.9281 56.7002 31.9281C56.4113 31.9281 56.1787 31.8294 56.0311 31.6678C55.862 31.4772 55.7916 31.1747 55.7916 30.7731V28.9131H55.2631V28.4414H55.7916V27.8075L56.3973 27.6244ZM58.1501 29.5052C58.1501 29.1036 58.1427 28.7586 58.1219 28.4414H58.6644L58.6928 29.1174H58.7134C58.8687 28.66 59.2487 28.371 59.6641 28.371C59.7278 28.371 59.7772 28.3782 59.8336 28.385V28.9699C59.7702 28.9555 59.707 28.9555 59.6219 28.9555C59.1857 28.9555 58.8753 29.2795 58.7911 29.7447C58.7765 29.8403 58.7694 29.9368 58.7698 30.0335V31.8509H58.1501V29.5052ZM63.6432 30.1177C63.6432 31.3786 62.7625 31.9281 61.9457 31.9281C61.0298 31.9281 60.3116 31.2517 60.3116 30.1744C60.3116 29.0402 61.0652 28.3712 62.0021 28.3712C62.981 28.3712 63.6432 29.0819 63.6432 30.1177ZM60.9453 30.1534C60.9453 30.9 61.3679 31.4637 61.9737 31.4637C62.5656 31.4637 63.009 30.9067 63.009 30.1392C63.009 29.5617 62.7202 28.8358 61.9877 28.8358C61.2625 28.8358 60.9453 29.5124 60.9453 30.1534ZM64.593 29.3643C64.593 29.0054 64.5855 28.7234 64.5645 28.4419H65.114L65.1493 29.0054H65.1632C65.3323 28.6882 65.7267 28.3714 66.2903 28.3714C66.7619 28.3714 67.4947 28.6532 67.4947 29.822V31.8509H66.875V29.8856C66.875 29.3366 66.6707 28.8783 66.0862 28.8783C65.6845 28.8783 65.3673 29.1672 65.2551 29.5122C65.2267 29.5899 65.2127 29.6953 65.2127 29.8012V31.8509H64.593V29.3643Z" fill="#1A1F71"/>
</g>
<defs>
<clipPath id="clip0_92_295">
<rect width="56" height="24.9375" fill="white" transform="translate(12 7)"/>
</clipPath>
</defs>
</svg>
