<svg width="36" height="35" viewBox="0 0 36 35" fill="none" xmlns="http://www.w3.org/2000/svg">
<path d="M11.8936 25.5208H13.3486V22.6042H16.2585V21.1458H13.3486V18.2292H11.8936V21.1458H8.98366V22.6042H11.8936V25.5208ZM19.6165 20.8658H27.6189V19.5752H19.6165V20.8658ZM19.6165 24.3425H24.7089V23.0533H19.6165V24.3425ZM7.41812 30.625C6.74786 30.625 6.18867 30.4004 5.74054 29.9513C5.29241 29.5021 5.06786 28.9416 5.06689 28.2698V14.0219C5.06689 13.351 5.29144 12.791 5.74054 12.3419C6.18964 11.8927 6.74835 11.6676 7.41666 11.6667H15.2517V5.83333C15.2517 5.42403 15.3923 5.07889 15.6736 4.79792C15.9539 4.51597 16.2983 4.375 16.7066 4.375H19.6165C20.0249 4.375 20.3693 4.51597 20.6496 4.79792C20.9309 5.07889 21.0715 5.42403 21.0715 5.83333V11.6667H28.9065C29.5758 11.6667 30.1345 11.8917 30.5826 12.3419C31.0308 12.792 31.2553 13.3525 31.2563 14.0233V28.2698C31.2563 28.9406 31.0317 29.5011 30.5826 29.9513C30.1335 30.4014 29.5748 30.626 28.9065 30.625H7.41812ZM7.41812 29.1667H28.9065C29.1674 29.1667 29.3818 29.0826 29.5496 28.9144C29.7174 28.7462 29.8013 28.5313 29.8013 28.2698V14.0219C29.8013 13.7603 29.7174 13.5455 29.5496 13.3773C29.3818 13.2091 29.1674 13.125 28.9065 13.125H21.0715V14.2479C21.0715 14.6378 20.9265 14.9781 20.6365 15.2688C20.3465 15.5594 20.0065 15.7053 19.6165 15.7063H16.7066C16.3167 15.7063 15.9767 15.5604 15.6867 15.2688C15.3967 14.9771 15.2517 14.6368 15.2517 14.2479V13.125H7.41812C7.15622 13.125 6.94137 13.2091 6.77357 13.3773C6.60576 13.5455 6.52186 13.7608 6.52186 14.0233V28.2698C6.52186 28.5313 6.60576 28.7462 6.77357 28.9144C6.94137 29.0826 7.15622 29.1667 7.41812 29.1667ZM16.7066 14.2479H19.6165V5.83333H16.7066V14.2479Z" fill="white"/>
</svg>
