<svg width="36" height="35" viewBox="0 0 36 35" fill="none" xmlns="http://www.w3.org/2000/svg">
<path d="M15.049 26.25C14.9043 26.25 14.7655 26.3076 14.6632 26.4102C14.5609 26.5127 14.5034 26.6518 14.5034 26.7969C14.5034 26.9419 14.5609 27.081 14.6632 27.1836C14.7655 27.2861 14.9043 27.3438 15.049 27.3438H20.5051C20.6498 27.3438 20.7886 27.2861 20.8909 27.1836C20.9933 27.081 21.0507 26.9419 21.0507 26.7969C21.0507 26.6518 20.9933 26.5127 20.8909 26.4102C20.7886 26.3076 20.6498 26.25 20.5051 26.25H15.049ZM11.5025 2.1875C10.5619 2.1875 9.65989 2.56201 8.99479 3.22864C8.3297 3.89528 7.95605 4.79943 7.95605 5.74219V29.2578C7.95605 30.2006 8.3297 31.1047 8.99479 31.7714C9.65989 32.438 10.5619 32.8125 11.5025 32.8125H24.0516C24.9922 32.8125 25.8943 32.438 26.5593 31.7714C27.2244 31.1047 27.5981 30.2006 27.5981 29.2578V5.74219C27.5981 4.79943 27.2244 3.89528 26.5593 3.22864C25.8943 2.56201 24.9922 2.1875 24.0516 2.1875H11.5025ZM9.04728 5.74219C9.04728 5.08951 9.30596 4.46356 9.76641 4.00204C10.2269 3.54053 10.8514 3.28125 11.5025 3.28125H24.0516C24.7028 3.28125 25.3273 3.54053 25.7877 4.00204C26.2482 4.46356 26.5069 5.08951 26.5069 5.74219V29.2578C26.5069 29.9105 26.2482 30.5364 25.7877 30.998C25.3273 31.4595 24.7028 31.7188 24.0516 31.7188H11.5025C10.8514 31.7188 10.2269 31.4595 9.76641 30.998C9.30596 30.5364 9.04728 29.9105 9.04728 29.2578V5.74219Z" fill="white"/>
</svg>
