<svg width="160" height="48" viewBox="0 0 160 48" fill="none" xmlns="http://www.w3.org/2000/svg">
<path d="M154.074 47.4074H5.92568C2.60716 47.4074 -0.000244141 44.8 -0.000244141 41.4815V5.92593C-0.000244141 2.60741 2.60716 0 5.92568 0H154.074C157.392 0 160 2.60741 160 5.92593V41.4815C160 44.8 157.392 47.4074 154.074 47.4074Z" fill="black"/>
<path d="M154.074 0.948148C156.8 0.948148 159.052 3.2 159.052 5.92593V41.4815C159.052 44.2074 156.8 46.4593 154.074 46.4593H5.92568C3.19976 46.4593 0.947904 44.2074 0.947904 41.4815V5.92593C0.947904 3.2 3.19976 0.948148 5.92568 0.948148H154.074ZM154.074 0H5.92568C2.60716 0 -0.000244141 2.72593 -0.000244141 5.92593V41.4815C-0.000244141 44.8 2.60716 47.4074 5.92568 47.4074H154.074C157.392 47.4074 160 44.8 160 41.4815V5.92593C160 2.72593 157.392 0 154.074 0Z" fill="#A6A6A6"/>
<path d="M56.1775 12.0889C56.1775 13.0371 55.9405 13.8667 55.3479 14.4593C54.6368 15.1704 53.8071 15.5259 52.7405 15.5259C51.6738 15.5259 50.8442 15.1704 50.1331 14.4593C49.422 13.7482 49.0664 12.9185 49.0664 11.8519C49.0664 10.7852 49.422 9.95557 50.1331 9.24446C50.8442 8.53335 51.6738 8.1778 52.7405 8.1778C53.2146 8.1778 53.6886 8.29631 54.1627 8.53335C54.6368 8.77039 54.9923 9.00743 55.2294 9.36298L54.6368 9.95557C54.1627 9.36298 53.5701 9.12594 52.7405 9.12594C52.0294 9.12594 51.3183 9.36298 50.8442 9.95557C50.2516 10.4296 50.0146 11.1408 50.0146 11.9704C50.0146 12.8 50.2516 13.5111 50.8442 13.9852C51.4368 14.4593 52.0294 14.8148 52.7405 14.8148C53.5701 14.8148 54.1627 14.5778 54.7553 13.9852C55.1108 13.6296 55.3479 13.1556 55.3479 12.563H52.7405V11.6148H56.1775V12.0889ZM61.6294 9.12594H58.4294V11.3778H61.3923V12.2074H58.4294V14.4593H61.6294V15.4074H57.4812V8.29631H61.6294V9.12594ZM65.5405 15.4074H64.5923V9.12594H62.5775V8.29631H67.5553V9.12594H65.5405V15.4074ZM70.9923 15.4074V8.29631H71.9405V15.4074H70.9923ZM75.9701 15.4074H75.022V9.12594H73.0071V8.29631H77.8664V9.12594H75.8516V15.4074H75.9701ZM87.2294 14.4593C86.5182 15.1704 85.6886 15.5259 84.622 15.5259C83.5553 15.5259 82.7257 15.1704 82.0145 14.4593C81.3034 13.7482 80.9479 12.9185 80.9479 11.8519C80.9479 10.7852 81.3034 9.95557 82.0145 9.24446C82.7257 8.53335 83.5553 8.1778 84.622 8.1778C85.6886 8.1778 86.5182 8.53335 87.2294 9.24446C87.9405 9.95557 88.296 10.7852 88.296 11.8519C88.296 12.9185 87.9405 13.7482 87.2294 14.4593ZM82.7257 13.8667C83.1997 14.3408 83.9108 14.6963 84.622 14.6963C85.3331 14.6963 86.0442 14.4593 86.5183 13.8667C86.9923 13.3926 87.3479 12.6815 87.3479 11.8519C87.3479 11.0222 87.1108 10.3111 86.5183 9.83705C86.0442 9.36298 85.3331 9.00742 84.622 9.00742C83.9108 9.00742 83.1997 9.24446 82.7257 9.83705C82.2516 10.3111 81.896 11.0222 81.896 11.8519C81.896 12.6815 82.1331 13.3926 82.7257 13.8667ZM89.5997 15.4074V8.29631H90.6664L94.1034 13.8667V8.29631H95.0516V15.4074H94.1034L90.4294 9.60002V15.4074H89.5997Z" fill="white" stroke="white" stroke-width="1.18519" stroke-miterlimit="10"/>
<path d="M80.7108 25.837C77.8664 25.837 75.6145 27.9704 75.6145 30.9333C75.6145 33.7778 77.8664 36.0296 80.7108 36.0296C83.5553 36.0296 85.8071 33.8963 85.8071 30.9333C85.8071 27.8518 83.5553 25.837 80.7108 25.837ZM80.7108 33.8963C79.1701 33.8963 77.8664 32.5926 77.8664 30.8148C77.8664 29.037 79.1701 27.7333 80.7108 27.7333C82.2516 27.7333 83.5553 28.9185 83.5553 30.8148C83.5553 32.5926 82.2516 33.8963 80.7108 33.8963ZM69.6886 25.837C66.8442 25.837 64.5923 27.9704 64.5923 30.9333C64.5923 33.7778 66.8442 36.0296 69.6886 36.0296C72.533 36.0296 74.7849 33.8963 74.7849 30.9333C74.7849 27.8518 72.533 25.837 69.6886 25.837ZM69.6886 33.8963C68.1479 33.8963 66.8442 32.5926 66.8442 30.8148C66.8442 29.037 68.1479 27.7333 69.6886 27.7333C71.2293 27.7333 72.533 28.9185 72.533 30.8148C72.533 32.5926 71.2293 33.8963 69.6886 33.8963ZM56.533 27.3778V29.5111H61.6293C61.5108 30.6963 61.0367 31.6444 60.4442 32.237C59.733 32.9481 58.5479 33.7778 56.533 33.7778C53.333 33.7778 50.9627 31.2889 50.9627 28.0889C50.9627 24.8889 53.4516 22.4 56.533 22.4C58.1923 22.4 59.496 23.1111 60.4442 23.9407L61.9849 22.4C60.6812 21.2148 59.0219 20.2667 56.6516 20.2667C52.3849 20.2667 48.7108 23.8222 48.7108 28.0889C48.7108 32.3556 52.3849 35.9111 56.6516 35.9111C59.0219 35.9111 60.6812 35.2 62.1034 33.6593C63.5256 32.237 63.9997 30.2222 63.9997 28.6815C63.9997 28.2074 63.9997 27.7333 63.8812 27.3778H56.533ZM110.34 29.037C109.866 27.8518 108.681 25.837 106.074 25.837C103.466 25.837 101.333 27.8518 101.333 30.9333C101.333 33.7778 103.466 36.0296 106.311 36.0296C108.563 36.0296 109.985 34.6074 110.459 33.7778L108.8 32.5926C108.207 33.4222 107.496 34.0148 106.311 34.0148C105.126 34.0148 104.415 33.5407 103.822 32.4741L110.577 29.6296L110.34 29.037ZM103.466 30.6963C103.466 28.8 105.007 27.7333 106.074 27.7333C106.903 27.7333 107.733 28.2074 107.97 28.8L103.466 30.6963ZM97.896 35.5555H100.148V20.7407H97.896V35.5555ZM94.3404 26.9037C93.7479 26.3111 92.7997 25.7185 91.6145 25.7185C89.1256 25.7185 86.7553 27.9704 86.7553 30.8148C86.7553 33.6593 89.0071 35.7926 91.6145 35.7926C92.7997 35.7926 93.7479 35.2 94.2219 34.6074H94.3404V35.3185C94.3404 37.2148 93.2738 38.2815 91.6145 38.2815C90.3108 38.2815 89.3627 37.3333 89.1256 36.5037L87.2293 37.3333C87.8219 38.637 89.2442 40.2963 91.733 40.2963C94.3405 40.2963 96.4738 38.7556 96.4738 35.0815V26.0741H94.3404V26.9037ZM91.733 33.8963C90.1923 33.8963 88.8886 32.5926 88.8886 30.8148C88.8886 29.037 90.1923 27.7333 91.733 27.7333C93.2738 27.7333 94.459 29.037 94.459 30.8148C94.459 32.5926 93.2738 33.8963 91.733 33.8963ZM120.652 20.7407H115.318V35.5555H117.57V29.9852H120.652C123.14 29.9852 125.511 28.2074 125.511 25.363C125.511 22.5185 123.14 20.7407 120.652 20.7407ZM120.77 27.8518H117.57V22.7556H120.77C122.429 22.7556 123.377 24.1778 123.377 25.2444C123.259 26.5481 122.311 27.8518 120.77 27.8518ZM134.4 25.7185C132.74 25.7185 131.081 26.4296 130.489 27.9704L132.503 28.8C132.977 27.9704 133.689 27.7333 134.518 27.7333C135.703 27.7333 136.77 28.4444 136.889 29.6296V29.7481C136.533 29.5111 135.585 29.1556 134.637 29.1556C132.503 29.1556 130.37 30.3407 130.37 32.4741C130.37 34.4889 132.148 35.7926 134.044 35.7926C135.585 35.7926 136.296 35.0815 136.889 34.3704H137.007V35.5555H139.14V29.8667C138.903 27.2593 136.889 25.7185 134.4 25.7185ZM134.163 33.8963C133.452 33.8963 132.385 33.5407 132.385 32.5926C132.385 31.4074 133.689 31.0518 134.755 31.0518C135.703 31.0518 136.177 31.2889 136.77 31.5259C136.533 32.9481 135.348 33.8963 134.163 33.8963ZM146.607 26.0741L144.118 32.4741H144L141.392 26.0741H139.022L142.933 35.0815L140.681 40.0593H142.933L148.977 26.0741H146.607ZM126.696 35.5555H128.948V20.7407H126.696V35.5555Z" fill="white"/>
<path d="M12.3256 8.88892C11.9701 9.24447 11.8516 9.83706 11.8516 10.5482V36.7408C11.8516 37.4519 12.0886 38.0445 12.4442 38.4L12.5627 38.5185L27.259 23.8223V23.5852L12.3256 8.88892Z" fill="url(#paint0_linear_22_91)"/>
<path d="M31.9996 28.8L27.1404 23.9408V23.5852L31.9996 18.726L32.1182 18.8445L37.9256 22.163C39.5848 23.1111 39.5848 24.6519 37.9256 25.6L31.9996 28.8Z" fill="url(#paint1_linear_22_91)"/>
<path d="M32.1183 28.6815L27.1405 23.7037L12.3257 38.5185C12.9183 39.1111 13.7479 39.1111 14.8146 38.6371L32.1183 28.6815Z" fill="url(#paint2_linear_22_91)"/>
<path d="M32.1183 18.726L14.8146 8.88893C13.7479 8.29634 12.9183 8.41485 12.3257 9.00745L27.1405 23.7037L32.1183 18.726Z" fill="url(#paint3_linear_22_91)"/>
<path opacity="0.2" d="M31.9998 28.563L14.8146 38.2815C13.8664 38.8741 13.0368 38.7556 12.4442 38.2815L12.3257 38.4L12.4442 38.5185C13.0368 38.9926 13.8664 39.1111 14.8146 38.5185L31.9998 28.563Z" fill="black"/>
<path opacity="0.12" d="M12.3256 38.2815C11.9701 37.926 11.8516 37.3334 11.8516 36.6223V36.7408C11.8516 37.4519 12.0886 38.0445 12.4442 38.4V38.2815H12.3256ZM37.9256 25.2445L31.9997 28.563L32.1182 28.6815L37.9256 25.363C38.7553 24.8889 39.1108 24.2963 39.1108 23.7037C39.1108 24.2963 38.6367 24.7704 37.9256 25.2445Z" fill="black"/>
<path opacity="0.25" d="M14.8145 9.00743L37.9256 22.163C38.6367 22.6371 39.1108 23.1111 39.1108 23.7037C39.1108 23.1111 38.7553 22.5185 37.9256 22.0445L14.8145 8.88891C13.1553 7.94076 11.8516 8.65187 11.8516 10.5482V10.6667C11.8516 8.88891 13.1553 8.05928 14.8145 9.00743Z" fill="white"/>
<defs>
<linearGradient id="paint0_linear_22_91" x1="25.8367" y1="10.323" x2="5.94578" y2="30.2128" gradientUnits="userSpaceOnUse">
<stop stop-color="#00A0FF"/>
<stop offset="0.007" stop-color="#00A1FF"/>
<stop offset="0.26" stop-color="#00BEFF"/>
<stop offset="0.512" stop-color="#00D2FF"/>
<stop offset="0.76" stop-color="#00DFFF"/>
<stop offset="1" stop-color="#00E3FF"/>
</linearGradient>
<linearGradient id="paint1_linear_22_91" x1="40.0992" y1="23.7049" x2="11.4213" y2="23.7049" gradientUnits="userSpaceOnUse">
<stop stop-color="#FFE000"/>
<stop offset="0.409" stop-color="#FFBD00"/>
<stop offset="0.775" stop-color="#FFA500"/>
<stop offset="1" stop-color="#FF9C00"/>
</linearGradient>
<linearGradient id="paint2_linear_22_91" x1="29.4243" y1="26.4249" x2="2.45191" y2="53.3974" gradientUnits="userSpaceOnUse">
<stop stop-color="#FF3A44"/>
<stop offset="1" stop-color="#C31162"/>
</linearGradient>
<linearGradient id="paint3_linear_22_91" x1="8.64805" y1="0.208633" x2="20.6931" y2="12.2537" gradientUnits="userSpaceOnUse">
<stop stop-color="#32A071"/>
<stop offset="0.069" stop-color="#2DA771"/>
<stop offset="0.476" stop-color="#15CF74"/>
<stop offset="0.801" stop-color="#06E775"/>
<stop offset="1" stop-color="#00F076"/>
</linearGradient>
</defs>
</svg>
