<svg width="19" height="19" viewBox="0 0 19 19" fill="none" xmlns="http://www.w3.org/2000/svg">
<path d="M18.5306 3.46937L15.5306 0.469374C15.461 0.399641 15.3783 0.344322 15.2872 0.306579C15.1962 0.268836 15.0986 0.249409 15 0.249409C14.9014 0.249409 14.8038 0.268836 14.7128 0.306579C14.6217 0.344322 14.539 0.399641 14.4694 0.469374L5.46937 9.46937C5.39975 9.53908 5.34454 9.62181 5.3069 9.71286C5.26926 9.80391 5.24992 9.90148 5.25 10V13C5.25 13.1989 5.32902 13.3897 5.46967 13.5303C5.61032 13.671 5.80109 13.75 6 13.75H9C9.09852 13.7501 9.19609 13.7307 9.28714 13.6931C9.37818 13.6555 9.46092 13.6002 9.53063 13.5306L18.5306 4.53062C18.6004 4.46097 18.6557 4.37825 18.6934 4.2872C18.7312 4.19616 18.7506 4.09856 18.7506 4C18.7506 3.90144 18.7312 3.80384 18.6934 3.71279C18.6557 3.62175 18.6004 3.53903 18.5306 3.46937ZM8.68969 12.25H6.75V10.3103L12.75 4.31031L14.6897 6.25L8.68969 12.25ZM15.75 5.18969L13.8103 3.25L15 2.06031L16.9397 4L15.75 5.18969ZM18 10V17.5C18 17.8978 17.842 18.2794 17.5607 18.5607C17.2794 18.842 16.8978 19 16.5 19H1.5C1.10218 19 0.720644 18.842 0.43934 18.5607C0.158035 18.2794 0 17.8978 0 17.5V2.5C0 2.10217 0.158035 1.72064 0.43934 1.43934C0.720644 1.15803 1.10218 0.999999 1.5 0.999999H9C9.19891 0.999999 9.38968 1.07902 9.53033 1.21967C9.67098 1.36032 9.75 1.55109 9.75 1.75C9.75 1.94891 9.67098 2.13968 9.53033 2.28033C9.38968 2.42098 9.19891 2.5 9 2.5H1.5V17.5H16.5V10C16.5 9.80109 16.579 9.61032 16.7197 9.46967C16.8603 9.32902 17.0511 9.25 17.25 9.25C17.4489 9.25 17.6397 9.32902 17.7803 9.46967C17.921 9.61032 18 9.80109 18 10Z" fill="#2A68FF"/>
</svg>
