<svg width="19" height="19" viewBox="0 0 19 19" fill="none" xmlns="http://www.w3.org/2000/svg">
<path d="M5.52784 10.1005C7.74643 10.1005 9.56738 8.27923 9.56738 6.05284C9.56738 3.84206 7.74643 2.01331 5.52784 2.01331C3.31706 2.01331 1.48831 3.84206 1.48831 6.05284C1.48831 8.27923 3.31706 10.1005 5.52784 10.1005ZM4.04075 8.40647C3.90572 8.40647 3.77848 8.33522 3.77848 8.17575C3.77733 8.12766 3.78258 8.07962 3.79409 8.03291L4.30302 6.49798L2.9754 5.52016C2.90381 5.47266 2.83222 5.38513 2.83222 5.28945C2.83222 5.11472 2.95131 5.05907 3.11823 5.05907H4.75665L5.26557 3.49259C5.32122 3.34161 5.41656 3.29377 5.52784 3.29377C5.63913 3.29377 5.74261 3.34127 5.79825 3.49259L6.29904 5.05907H7.94525C8.11218 5.05907 8.23161 5.11472 8.23161 5.28979C8.23161 5.38513 8.16002 5.47266 8.08843 5.5205L6.76047 6.49832L7.26125 8.03325C7.27907 8.07067 7.28988 8.11103 7.29315 8.15234C7.29315 8.30366 7.16591 8.40681 7.02273 8.40681C6.95929 8.40681 6.91145 8.4068 6.86361 8.36711L5.52784 7.40489L4.19988 8.36711C4.16018 8.399 4.0964 8.40647 4.04075 8.40647ZM11.4677 4.49484H16.8997C17.2417 4.49484 17.5118 4.23223 17.5118 3.89023C17.5118 3.55604 17.2413 3.29377 16.8997 3.29377H11.4677C11.1257 3.29377 10.8631 3.55604 10.8631 3.89023C10.8631 4.23223 11.1257 4.4945 11.4677 4.4945M11.4677 8.66093H16.8997C17.2417 8.66093 17.5118 8.39866 17.5118 8.057C17.5118 7.72281 17.2413 7.4602 16.8997 7.4602H11.4677C11.1257 7.4602 10.8631 7.72281 10.8631 8.05666C10.8631 8.39866 11.1257 8.66093 11.4677 8.66093ZM2.09291 12.8284H16.8993C16.9793 12.8292 17.0587 12.8142 17.1329 12.7842C17.2071 12.7543 17.2746 12.7099 17.3315 12.6537C17.3884 12.5975 17.4337 12.5305 17.4646 12.4567C17.4956 12.383 17.5116 12.3038 17.5118 12.2238C17.5118 11.8899 17.2413 11.6273 16.8997 11.6273H2.09257C1.75057 11.6273 1.48831 11.8899 1.48831 12.2238C1.48831 12.558 1.75057 12.8284 2.09223 12.8284M2.09223 16.987H16.8987C17.2407 16.987 17.5111 16.7247 17.5111 16.3909C17.5111 16.0567 17.2407 15.7863 16.899 15.7863H2.09257C2.013 15.7856 1.93409 15.8008 1.86045 15.8309C1.78681 15.8611 1.71991 15.9056 1.66366 15.9619C1.60741 16.0181 1.56293 16.0851 1.53282 16.1587C1.50272 16.2324 1.48758 16.3113 1.48831 16.3909C1.48831 16.7247 1.75057 16.987 2.09223 16.987Z" fill="white"/>
</svg>
