<svg width="19" height="19" viewBox="0 0 19 19" fill="none" xmlns="http://www.w3.org/2000/svg">
<path d="M9.78397 11.6565C6.93397 11.6565 3.75146 13.9745 3.75146 16.8229M9.78397 9.07649C10.4668 9.07812 11.1348 8.87718 11.7034 8.49909C12.272 8.121 12.7157 7.58275 12.9783 6.95245C13.1749 6.4812 13.2643 5.97219 13.2402 5.46218C13.216 4.95216 13.0789 4.45388 12.8387 4.00332C12.5985 3.55276 12.2612 3.16118 11.8512 2.85686C11.4412 2.55254 10.9688 2.34308 10.468 2.24361C9.96732 2.14378 9.45078 2.15619 8.95551 2.27995C8.46024 2.40371 7.99858 2.63574 7.60374 2.95933C7.20891 3.28292 6.89073 3.69002 6.67211 4.15134C6.45349 4.61265 6.33987 5.1167 6.33942 5.6272C6.33921 6.54111 6.70179 7.41773 7.34751 8.06449C7.99322 8.71124 8.86926 9.07523 9.78317 9.07649M10.4988 14.5366L11.8352 15.8737C11.8821 15.9215 11.9381 15.9595 11.9999 15.9854C12.0617 16.0113 12.128 16.0247 12.195 16.0247C12.262 16.0247 12.3283 16.0113 12.3901 15.9854C12.4519 15.9595 12.5079 15.9215 12.5548 15.8737L15.2488 13.1797" stroke="white" stroke-width="1.1875" stroke-linecap="round" stroke-linejoin="round"/>
</svg>
